HIERARCHY
ROOT reference
{
  OFFSET 0 0 0
  CHANNELS 6 Xposition Yposition Zposition Zrotation Xrotation Yrotation
  JOINT Hips
  {
    OFFSET 0 97.8064 0
    CHANNELS 6 Xposition Yposition Zposition Zrotation Xrotation Yrotation
    JOINT ToSpine
    {
      OFFSET -2.69724 7.43032 -0.144315
      CHANNELS 6 Xposition Yposition Zposition Zrotation Xrotation Yrotation
      JOINT Spine
      {
        OFFSET -0.0310711 10.7595 1.96963
        CHANNELS 6 Xposition Yposition Zposition Zrotation Xrotation Yrotation
        JOINT Spine1
        {
          OFFSET 13.1342 3.43533 0.764692
          CHANNELS 6 Xposition Yposition Zposition Zrotation Xrotation Yrotation
          JOINT Neck
          {
            OFFSET 29.8703 7.82586 -0.130764
            CHANNELS 6 Xposition Yposition Zposition Zrotation Xrotation Yrotation
            JOINT Head
            {
              OFFSET 9.52751 0.295786 -0.907742
              CHANNELS 6 Xposition Yposition Zposition Zrotation Xrotation Yrotation
              End Site
              {
                OFFSET 16.4037 0.713936 2.7358
              }
            }
          }
          JOINT LeftShoulder
          {
            OFFSET 27.5574 4.95586 2.47156
            CHANNELS 6 Xposition Yposition Zposition Zrotation Xrotation Yrotation
            JOINT LeftArm
            {
              OFFSET 1.20734 -0.998971 20.1238
              CHANNELS 6 Xposition Yposition Zposition Zrotation Xrotation Yrotation
              JOINT LeftForeArm
              {
                OFFSET 26.8049 -0.0536703 -0.155908
                CHANNELS 6 Xposition Yposition Zposition Zrotation Xrotation Yrotation
                JOINT LeftHand
                {
                  OFFSET 26.6817 0 0.320147
                  CHANNELS 6 Xposition Yposition Zposition Zrotation Xrotation Yrotation
                  End Site
                  {
                    OFFSET 18.6119 0 0.382219
                  }
                }
              }
            }
          }
          JOINT RightShoulder
          {
            OFFSET 27.5927 4.71444 -2.65209
            CHANNELS 6 Xposition Yposition Zposition Zrotation Xrotation Yrotation
            JOINT RightArm
            {
              OFFSET 2.83739 -1.17114 -18.7564
              CHANNELS 6 Xposition Yposition Zposition Zrotation Xrotation Yrotation
              JOINT RightForeArm
              {
                OFFSET 28.839 -0.0548439 1.22491
                CHANNELS 6 Xposition Yposition Zposition Zrotation Xrotation Yrotation
                JOINT RightHand
                {
                  OFFSET 26.5114 0 -0.101894
                  CHANNELS 6 Xposition Yposition Zposition Zrotation Xrotation Yrotation
                  End Site
                  {
                    OFFSET 18.2168 0 0
                  }
                }
              }
            }
          }
        }
      }
    }
    JOINT LeftUpLeg
    {
      OFFSET -4.76168 -1.9167 -10.2353
      CHANNELS 6 Xposition Yposition Zposition Zrotation Xrotation Yrotation
      JOINT LeftLeg
      {
        OFFSET 2.55951 -42.0585 -8.02213
        CHANNELS 6 Xposition Yposition Zposition Zrotation Xrotation Yrotation
        JOINT LeftFoot
        {
          OFFSET 3.16357 -42.5282 -3.95426
          CHANNELS 6 Xposition Yposition Zposition Zrotation Xrotation Yrotation
          JOINT LeftToeBase
          {
            OFFSET 0.346054 -6.02161 12.8035
            CHANNELS 6 Xposition Yposition Zposition Zrotation Xrotation Yrotation
            End Site
            {
              OFFSET 0.134235 -1.35082 5.13018
            }
          }
        }
      }
    }
    JOINT RightUpLeg
    {
      OFFSET -4.94151 -1.41743 10.6446
      CHANNELS 6 Xposition Yposition Zposition Zrotation Xrotation Yrotation
      JOINT RightLeg
      {
        OFFSET -2.56294 -42.0364 -7.94377
        CHANNELS 6 Xposition Yposition Zposition Zrotation Xrotation Yrotation
        JOINT RightFoot
        {
          OFFSET -3.0952 -42.555 -4.02241
          CHANNELS 6 Xposition Yposition Zposition Zrotation Xrotation Yrotation
          JOINT RightToeBase
          {
            OFFSET -0.0828122 -6.13587 12.8035
            CHANNELS 6 Xposition Yposition Zposition Zrotation Xrotation Yrotation
            End Site
            {
              OFFSET -0.131328 -1.35082 5.13018
            }
          }
        }
      }
    }
  }
}
MOTION
Frames:	4
Frame Time:	0.0333333
0 0 0 0 0 -0 -6.55358 86.8337 -41.8148 -63.9635 -28.1981 -166.114 -2.69724 7.43032 -0.144315 -70.1915 -3.97569e-016 88.8779 -0.0310711 10.7595 1.96963 115.861 68.7065 -24.3086 13.1342 3.43533 0.764692 1.99805 19.7442 2.08391 29.8703 7.82586 -0.130764 -146.902 15.2764 -165.883 9.52751 0.295786 -0.907742 -138.795 51.5308 -174.881 27.5574 4.95586 2.47156 0.02861 -15.8217 -28.3089 1.20734 -0.998971 20.1238 -79.0728 14.6068 -82.6747 26.8049 -0.0536703 -0.155908 7.58188 10.8797 -34.9004 26.6817 -2.84217e-014 0.320147 1.90833e-014 3.18055e-015 3.18055e-015 27.5927 4.71444 -2.65209 -1.90007 8.47887 36.5657 2.83739 -1.17114 -18.7564 -41.8483 -27.2333 124.042 28.839 -0.0548439 1.22491 -6.43238 -2.17802 108.7 26.5114 2.4869e-014 -0.101894 -1.10846e-012 -4.76474e-009 -0.0296889 -4.76168 -1.9167 -10.2353 -24.5619 28.2535 110.82 2.55951 -42.0585 -8.02213 -4.93107 65.4643 7.67659 3.16357 -42.5282 -3.95426 -0.431538 -14.3126 -1.22998 0.346054 -6.02161 12.8035 1.46479 -7.59546 16.3685 -4.94151 -1.41743 10.6446 -35.7836 -14.5469 95.0998 -2.56294 -42.0364 -7.94377 3.746 53.9672 1.96524 -3.0952 -42.555 -4.02241 -3.50996 -18.4811 1.49031 -0.0828122 -6.13587 12.8035 2.26448 -18.5809 -14.4339 
0 0 0 0 0 -0 -7.17819 88.1097 -40.1305 -62.2332 -34.6316 -162.1 -2.69724 7.43032 -0.144315 -70.1915 -4.37326e-015 88.8779 -0.0310711 10.7595 1.96963 111.351 69.7593 -20.0805 13.1342 3.43533 0.764692 1.59354 19.5829 4.15124 29.8703 7.82586 -0.130764 -143.121 17.0221 -167.57 9.52751 0.295786 -0.907742 -139.853 53.0272 -174.529 27.5574 4.95586 2.47156 0.103206 -15.541 -27.8329 1.20734 -0.998971 20.1238 -79.0541 14.0356 -91.1693 26.8049 -0.0536703 -0.155908 9.25306 13.2675 -35.0179 26.6817 -1.42109e-014 0.320147 9.54166e-015 -3.18055e-015 -1.59028e-015 27.5927 4.71444 -2.65209 -1.96419 8.75444 36.5463 2.83739 -1.17114 -18.7564 -42.2217 -29.465 123.235 28.839 -0.0548439 1.22491 -5.91592 -1.80843 107.009 26.5114 3.55271e-014 -0.101894 -1.10647e-012 -4.76474e-009 -0.0296889 -4.76168 -1.9167 -10.2353 -24.0118 27.0234 114.778 2.55951 -42.0585 -8.02213 -3.41014 63.2658 10.4007 3.16357 -42.5282 -3.95426 -0.666281 -13.1139 -1.12429 0.346054 -6.02161 12.8035 0.510663 -5.72183 14.6292 -4.94151 -1.41743 10.6446 -41.9752 -17.3779 88.4501 -2.56294 -42.0364 -7.94377 2.92531 49.5936 1.24077 -3.0952 -42.555 -4.02241 -4.83453 -14.0458 1.27967 -0.0828122 -6.13587 12.8035 2.20321 -21.9554 -15.8866 
0 0 0 0 0 -0 -7.63391 89.1761 -37.9632 -59.4873 -42.9447 -157.163 -2.69724 7.43032 -0.144315 -70.1915 -4.37326e-015 88.8779 -0.0310711 10.7595 1.96963 104.353 71.2729 -13.7067 13.1342 3.43533 0.764692 2.34975 20.1722 5.16169 29.8703 7.82586 -0.130764 -138.1 18.8662 -173.387 9.52751 0.295786 -0.907742 -138.358 54.8842 -175.767 27.5574 4.95586 2.47156 0.183091 -15.4317 -26.5799 1.20734 -0.998971 20.1238 -79.7556 14.2945 -102.826 26.8049 -0.0536703 -0.155908 8.35579 11.4956 -36.0797 26.6817 -2.84217e-014 0.320147 -1.32417e-031 -1.59028e-015 -4.77083e-015 27.5927 4.71444 -2.65209 -2.01267 8.6785 37.3269 2.83739 -1.17114 -18.7564 -45.0596 -32.0657 121.683 28.839 -0.0548439 1.22491 -7.22823 -1.98597 105.279 26.5114 2.84217e-014 -0.101894 -1.10607e-012 -4.76474e-009 -0.0296889 -4.76168 -1.9167 -10.2353 -24.9053 21.7042 114.615 2.55951 -42.0585 -8.02213 -2.30354 59.5536 11.106 3.16357 -42.5282 -3.95426 1.64768 -13.3432 -1.17038 0.346054 -6.02161 12.8035 -0.0963685 -4.25362 12.7838 -4.94151 -1.41743 10.6446 -47.3769 -18.5065 85.2412 -2.56294 -42.0364 -7.94377 2.27994 49.542 -3.04506 -3.0952 -42.555 -4.02241 -4.17123 -6.48834 0.955543 -0.0828122 -6.13587 12.8035 2.05026 -27.5761 -16.4974 
0 0 0 0 0 -0 -7.82558 90.1268 -35.7948 -56.5494 -51.1359 -151.662 -2.69724 7.43032 -0.144315 -70.1915 -7.05686e-015 88.8779 -0.0310711 10.7595 1.96963 105.809 72.1743 -14.4707 13.1342 3.43533 0.764692 1.73769 21.409 4.84541 29.8703 7.82586 -0.130764 -134.181 20.467 -178.39 9.52751 0.295786 -0.907742 -139.079 57.2164 -175.698 27.5574 4.95586 2.47156 0.212094 -15.3838 -26.1383 1.20734 -0.998971 20.1238 -80.1603 16.7503 -113.797 26.8049 -0.0536703 -0.155908 7.57774 9.10612 -39.7887 26.6817 -2.84217e-014 0.320147 0 0 -1.59028e-015 27.5927 4.71444 -2.65209 -2.04288 8.62297 37.8426 2.83739 -1.17114 -18.7564 -49.7045 -34.4878 119.663 28.839 -0.0548439 1.22491 -6.31262 -1.4081 102.508 26.5114 2.66454e-014 -0.101894 -1.10448e-012 -4.76474e-009 -0.0296889 -4.76168 -1.9167 -10.2353 -27.3657 14.8033 109.086 2.55951 -42.0585 -8.02213 -2.29882 56.634 8.74474 3.16357 -42.5282 -3.95426 -0.732717 -17.5304 -1.51622 0.346054 -6.02161 12.8035 -2.86902 0.977738 11.197 -4.94151 -1.41743 10.6446 -49.4284 -17.106 86.1242 -2.56294 -42.0364 -7.94377 1.13069 55.2805 -12.9129 -3.0952 -42.555 -4.02241 -3.26505 0.487277 0.545911 -0.0828122 -6.13587 12.8035 2.73614 -24.0141 -5.19164 
